<svg width="516" height="27" viewBox="0 0 516 27" fill="none" xmlns="http://www.w3.org/2000/svg">
<g filter="url(#filter0_dddd_511_2731)">
<path d="M8 13.4096C8 13.4096 15.8701 13.2145 29.3969 12.8241C36.2833 12.6289 44.6454 12.5313 53.9911 12.3361C58.664 12.2386 63.8288 12.141 69.2395 12.0434C74.6503 11.9458 80.3069 12.0434 85.9636 12.0434C132.939 12.0434 195.408 12.0434 257.877 12.0434C320.346 12.0434 382.816 12.0434 429.79 12.0434C435.693 12.0434 441.35 11.9458 446.514 12.0434C451.925 12.141 456.844 12.2386 461.763 12.3361C471.355 12.5313 479.471 12.7265 486.357 12.8241C493.243 12.9217 498.654 13.1169 502.343 13.2145C506.032 13.312 508 13.312 508 13.312C508 13.312 506.032 13.4096 502.343 13.4096C498.654 13.5072 493.243 13.6048 486.357 13.8C479.471 13.8976 471.109 14.0928 461.763 14.2879C457.09 14.3855 451.925 14.4831 446.514 14.5807C441.104 14.6783 435.447 14.5807 429.79 14.5807C382.816 14.5807 320.346 14.5807 257.877 14.5807C195.408 14.5807 132.939 14.5807 85.9636 14.5807C80.061 14.5807 74.4043 14.6783 69.2395 14.5807C63.8288 14.4831 58.91 14.3855 53.9911 14.2879C44.3994 14.0928 36.2833 13.8976 29.3969 13.8C15.8701 13.6048 8 13.4096 8 13.4096Z" fill="white"/>
</g>
<defs>
<filter id="filter0_dddd_511_2731" x="0" y="0" width="516" height="26.624" filterUnits="userSpaceOnUse" color-interpolation-filters="sRGB">
<feFlood flood-opacity="0" result="BackgroundImageFix"/>
<feColorMatrix in="SourceAlpha" type="matrix" values="0 0 0 0 0 0 0 0 0 0 0 0 0 0 0 0 0 0 127 0" result="hardAlpha"/>
<feOffset dy="4"/>
<feGaussianBlur stdDeviation="4"/>
<feColorMatrix type="matrix" values="0 0 0 0 0.905882 0 0 0 0 0.0470588 0 0 0 0 0.0470588 0 0 0 1 0"/>
<feBlend mode="normal" in2="BackgroundImageFix" result="effect1_dropShadow_511_2731"/>
<feColorMatrix in="SourceAlpha" type="matrix" values="0 0 0 0 0 0 0 0 0 0 0 0 0 0 0 0 0 0 127 0" result="hardAlpha"/>
<feOffset dy="-4"/>
<feGaussianBlur stdDeviation="4"/>
<feColorMatrix type="matrix" values="0 0 0 0 0.905882 0 0 0 0 0.0470588 0 0 0 0 0.0470588 0 0 0 1 0"/>
<feBlend mode="normal" in2="effect1_dropShadow_511_2731" result="effect2_dropShadow_511_2731"/>
<feColorMatrix in="SourceAlpha" type="matrix" values="0 0 0 0 0 0 0 0 0 0 0 0 0 0 0 0 0 0 127 0" result="hardAlpha"/>
<feOffset dy="2"/>
<feGaussianBlur stdDeviation="2"/>
<feColorMatrix type="matrix" values="0 0 0 0 0.905882 0 0 0 0 0.0470588 0 0 0 0 0.0470588 0 0 0 1 0"/>
<feBlend mode="normal" in2="effect2_dropShadow_511_2731" result="effect3_dropShadow_511_2731"/>
<feColorMatrix in="SourceAlpha" type="matrix" values="0 0 0 0 0 0 0 0 0 0 0 0 0 0 0 0 0 0 127 0" result="hardAlpha"/>
<feOffset dy="-2"/>
<feGaussianBlur stdDeviation="2"/>
<feColorMatrix type="matrix" values="0 0 0 0 0.904167 0 0 0 0 0.0452083 0 0 0 0 0.0452083 0 0 0 1 0"/>
<feBlend mode="normal" in2="effect3_dropShadow_511_2731" result="effect4_dropShadow_511_2731"/>
<feBlend mode="normal" in="SourceGraphic" in2="effect4_dropShadow_511_2731" result="shape"/>
</filter>
</defs>
</svg>
